<?xml version="1.0" encoding="UTF-8"?>
<svg id="Layer_2" data-name="Layer 2" xmlns="http://www.w3.org/2000/svg" viewBox="0 0 883.25 1005.53">
  <defs>
    <style>
      .cls-1 {
        fill: #29abe2;
        stroke-width: 0px;
      }
    </style>
  </defs>
  <g id="Layer_1-2" data-name="Layer 1">
    <g>
      <path class="cls-1" d="m546.78,854.98c-9.68,42.01-19.46,82.54-28.25,123.29-5.85,27.13-5.21,27.27-34.12,27.27-37.36,0-74.72,0-111.77,0-11.97-50.81-23.65-100.34-35.48-150.55h209.62Z"/>
      <path class="cls-1" d="m558.51,830.42c-66.02,0-132.49-1.18-198.88.6-25.37.68-41.57-3.81-48.48-31.04-4.13-16.3-14.19-31.1-22.64-48.78,7.6-.44,13.39-1.05,19.19-1.06,35.75-.09,71.53-.89,107.24.32,16.64.56,20.46-5.24,20.21-20.95-.88-56.41-.35-112.84-.33-169.26,0-4.46-.58-9.14.57-13.31.64-2.33,4.29-3.83,6.59-5.7,1.4,2.09,3.61,4.03,4.03,6.3.7,3.79.28,7.79.28,11.7,0,56.98.61,113.97-.37,170.93-.29,16.59,5.19,20.71,20.93,20.26,36.84-1.06,73.73-.34,110.6-.34h18.35c-13,28.01-24.9,53.64-37.29,80.33Z"/>
      <path class="cls-1" d="m683.83,617.39c-10.17,13.88-20.11,27.81-30.56,41.33-1.7,2.2-5.71,3.69-8.67,3.7-46.25.23-92.5.16-142.86.16,10.71-16.57,19.34-30.54,28.75-43.94,1.8-2.57,6.72-4.15,10.2-4.15,46.38-.11,92.75.13,139.13.37.91,0,1.82,1.11,4.01,2.53Z"/>
      <path class="cls-1" d="m382.14,662.63c-49.34,0-95.09.12-140.83-.21-3.91-.03-9.19-1.86-11.45-4.73-10.29-13.06-19.74-26.8-31.76-43.44,15.5,0,28.06,0,40.63,0,32.38,0,64.77.44,97.13-.24,11.32-.24,18.92,2.74,24.37,13.08,5.91,11.21,13.26,21.67,21.9,35.53Z"/>
      <path class="cls-1" d="m417.05,726.33c-47.64,0-92.63.11-137.62-.25-3.05-.02-7.12-2.93-8.93-5.68-7.92-12.05-15.18-24.53-24.48-39.83,17.62,0,32.83,0,48.04,0,27.92,0,55.85.52,83.75-.26,10.87-.3,17.74,2.35,22.13,12.81,4.44,10.59,10.48,20.52,17.1,33.2Z"/>
      <path class="cls-1" d="m637.84,680.63c-9.07,15.04-16.38,28.01-24.68,40.32-1.99,2.94-7.24,5.17-11.01,5.2-44,.36-88,.23-135.19.23,8.06-15.21,14.76-28.41,22.11-41.24,1.31-2.28,5.27-4.3,8.02-4.32,46.08-.26,92.16-.19,140.75-.19Z"/>
      <path class="cls-1" d="m418.56,222.58c-7.09,8.38-13.76,16.25-20.43,24.13-1.78-1.28-3.56-2.57-5.34-3.85,4.92-9.83,9.84-19.66,16.39-32.76-19.99,10.22-25.4,33.58-48.51,32.13,20.44-22.56,39.25-47.03,62.23-66.6,7.69-6.55,30.63-6.05,38.61.69,22.73,19.2,41.35,43.27,60.29,67.08-22.07.31-27.01-23.41-47.26-33.89,6.75,13.2,11.75,22.95,18,35.19-18.4,2.24-16.42-16.89-27.64-22.17,1.07,7.55,1.98,13.89,3.12,21.9-16.68,2.61-8.98-16.47-19.74-20.13-1.17,6.78-2.29,13.34-3.42,19.9-1.67.62-3.35,1.25-5.03,1.87-2.56-6.22-5.12-12.44-7.73-18.78-3.09,6.21-6.19,12.43-9.29,18.65-1.83-.47-3.66-.93-5.48-1.4.39-7.06.78-14.12,1.21-21.96Z"/>
      <path class="cls-1" d="m357,542.65c-3.61,15.36-6.68,30.89-11.29,45.95-.88,2.89-7.78,5.55-11.92,5.58-47.45.39-95,1.98-142.28-.91-12.56-.77-24.25-15.71-36.33-24.14.86-1.73,1.72-3.47,2.58-5.2,4.63-.37,9.26-1.05,13.9-1.05,49.68-.08,99.37-.32,149.05.14,12.56.11,23.53.41,24.95-16.13.2-2.28,3.75-4.27,5.75-6.39,1.87.72,3.73,1.44,5.6,2.16Z"/>
      <path class="cls-1" d="m536.1,535.99c1.02,3.77,2.83,7.53,2.92,11.33.39,16.62,11.65,15.65,23.33,15.6,54.17-.23,108.34-.1,162.73-.1-6.6,20.93-20.35,31.61-40.17,31.61-43.58.02-87.16-.45-130.73.3-11.84.2-17.33-3.55-19.17-14.99-2-12.4-5.05-24.64-7.64-36.95,2.91-2.27,5.82-4.54,8.72-6.81Z"/>
      <path class="cls-1" d="m208.34,434.17c-38.57,0-75.74,0-112.9,0-20.65,0-41.35-.81-61.95.28-14.37.76-24.2-4.78-33.5-17.24,6.34-.36,11.12-.87,15.91-.88,54.7-.06,109.41.38,164.11-.32,13.59-.17,21.89,4.69,28.32,18.17Z"/>
      <path class="cls-1" d="m675.68,428.51c7.52-4.07,14.99-11.54,22.58-11.66,59.71-.95,119.44-.51,179.16-.43,1.51,0,3.02.83,5.83,1.66-8.24,10.74-16.96,16.51-30.76,16.36-58.02-.62-116.04-.26-174.06-.26-.91-1.89-1.83-3.77-2.74-5.66Z"/>
      <path class="cls-1" d="m581.74,416.81c3.96,3.19,9.14,5.63,11.67,9.71,7.62,12.32,14.76,25.02,21.04,38.07,4.99,10.37,11.86,14.13,23.54,13.99,50.82-.62,101.66-.26,152.48-.26,6.09,0,12.17,0,18.26,0,.6,1.67,1.21,3.34,1.82,5.01-6.68,2.94-13.32,8.33-20.04,8.42-54.17.7-108.36.65-162.53,0-5.31-.06-12.69-4.42-15.47-8.99-12.11-19.97-22.87-40.75-34.12-61.24,1.12-1.56,2.24-3.12,3.36-4.69Z"/>
      <path class="cls-1" d="m305.69,421.55c-11.83,21.42-23.28,43.06-35.83,64.05-2.16,3.61-8.96,6.22-13.64,6.26-54.19.43-108.38.57-162.57-.1-6.84-.08-13.63-5.24-20.44-8.04.55-1.8,1.11-3.61,1.66-5.41,33.91,0,67.81,0,101.72,0,24.02,0,48.09.82,72.04-.54,6.73-.38,15.18-5.74,19.2-11.4,8.66-12.21,14.6-26.31,22.42-39.17,2.54-4.17,7.46-6.89,11.29-10.27l4.15,4.63Z"/>
      <path class="cls-1" d="m768.78,519.2c-7.87,15.53-18.24,19.94-33.37,19.65-47.87-.93-95.76-.34-144.76-.34,4.49-14.98,12.91-19.82,27.33-19.6,49.63.76,99.28.29,150.8.29Z"/>
      <path class="cls-1" d="m293.95,538.5c-32.53,0-63.51,0-94.49,0-17.84,0-35.75-.91-53.51.29-14.39.97-22.83-5.15-30.4-19.59,17.21,0,32.5,0,47.78,0,34.57,0,69.16.66,103.71-.32,14.15-.4,21.35,5.56,26.92,19.62Z"/>
      <path class="cls-1" d="m233.16,464.37c-56.26,0-111.33.42-166.38-.41-9.22-.14-18.36-5.67-27.54-8.71.4-1.92.81-3.85,1.21-5.77,3.49-.45,6.99-1.3,10.48-1.3,53.04-.08,106.09.17,159.13-.24,11.51-.09,18.94,3.58,23.1,16.43Z"/>
      <path class="cls-1" d="m844.66,453.53c-7.31,3.61-14.58,10.23-21.95,10.35-56.84.87-113.7.48-172.85-3.43,6.17-4.09,12.29-11.62,18.53-11.72,57.98-.91,115.97-.54,173.97-.54.77,1.78,1.54,3.56,2.31,5.34Z"/>
      <path class="cls-1" d="m445.04,518.1q-11.48-4.79-10.05-84.19c.1-5.33,2.69-10.61,4.12-15.91,1.98.41,3.96.82,5.93,1.24v98.86Z"/>
      <path class="cls-1" d="m663.95,402.71c-5-2.4-11.24-3.63-14.79-7.4-22.14-23.46-43.68-47.49-63.97-74.94,4.83,1.63,11.15,1.85,14.26,5.12,22.63,23.76,44.62,48.14,66.81,72.32-.77,1.63-1.54,3.26-2.31,4.89Z"/>
      <path class="cls-1" d="m299.47,322.02c-19.44,31.65-68.11,78.6-80.91,78.04,18.06-30.38,68.07-78.61,80.91-78.04Z"/>
      <path class="cls-1" d="m386.83,417.62c-10.84,35.81-13.48,70.17-26.47,101.39-2.74-.72-5.49-1.45-8.23-2.17,7.6-32.04,15.1-64.1,23.11-96.03.35-1.38,5.41-1.58,11.59-3.2Z"/>
      <path class="cls-1" d="m502.44,417.35c2.71,2.69,7.08,4.97,7.87,8.14,7.48,30.05,14.36,60.24,21.41,90.4-1.63,1.06-3.27,2.12-4.9,3.18-2.71-3.53-6.91-6.7-7.88-10.66-7.08-29.1-13.51-58.37-20.15-87.58l3.65-3.48Z"/>
      <path class="cls-1" d="m575.07,402.61c-4.04-2.91-9.6-4.94-11.88-8.87-13.32-22.97-25.87-46.38-36.71-73,3.88,1.88,9.56,2.7,11.37,5.79,13.93,23.88,27.1,48.19,40.51,72.37-1.1,1.23-2.2,2.47-3.29,3.7Z"/>
      <path class="cls-1" d="m306.14,397.88c15.92-26.01,27.63-54.82,46.08-79.14,2.45,1.62,4.9,3.24,7.35,4.86-15.23,26.73-27.74,55.21-45.98,80-2.48-1.91-4.97-3.81-7.45-5.72Z"/>
      <path class="cls-1" d="m445.3,321.88v78.05c-1.77.59-3.54,1.17-5.31,1.76-1.73-5.12-4.83-10.2-4.97-15.36-1.65-61.28-1.54-61.28,10.28-64.44Z"/>
      <path class="cls-1" d="m406.99,321.96c-5.37,44.33-14.5,73.71-24.11,78.55-4.14-19.62,12.46-76.43,24.11-78.55Z"/>
      <path class="cls-1" d="m479.66,321.77c9.55,4.9,24.21,56.68,22.16,78.25-10.08-3.53-25.76-58.91-22.16-78.25Z"/>
      <path class="cls-1" d="m480.96.1c24.09,2.8,28.55,11.09,22.87,49.11-5.25-1.76-10.3-3.51-15.39-5.13-4.68-1.48-9.41-2.81-9.78-2.92,4.31-5.91,13.2-12.86,13.74-20.4.51-7.04-7.86-14.72-11.44-20.66Z"/>
      <path class="cls-1" d="m354.02,97.18c10.85-28.74,14.69-56.99-1.89-85.99,12.72,4.07,17.29,11.18,19.79,27.88,3.63,24.23-3.45,49.65-17.9,58.11Z"/>
      <path class="cls-1" d="m533.4,11.58c-15.11,28.9-10.52,57.36,2.73,88.39-27.37-16.86-27.63-74.84-2.73-88.39Z"/>
      <path class="cls-1" d="m407.88,0c-23.57,15.39-22.59,23.37,5.55,39.24-10.26,3.47-19.95,6.75-29.69,10.04-8.38-33.73-2.8-44.94,24.14-49.29Z"/>
      <path class="cls-1" d="m577.3,303.89c-26.42-5.85-36.25-31.13-53.18-48.38,26.58,5.48,35.32,32.14,53.18,48.38Z"/>
      <path class="cls-1" d="m306.98,304.07c17.32-17.08,26.67-42.7,52.97-49.14-16.11,18.29-26.84,42.39-52.97,49.14Z"/>
      <path class="cls-1" d="m523.32,304.28c-11.96-.87-21.24-13.68-34.94-48.21,11.94-.65,27.6,20.97,34.94,48.21Z"/>
      <path class="cls-1" d="m398.59,255.36c-13.41,17.78-17.31,38.68-35.34,52.31-1.92-18.46,19.89-51.87,35.34-52.31Z"/>
      <path class="cls-1" d="m439.48,305.39c-10.06-12.89-2.75-28.95-4.17-43.34-.26-2.63,4.6-5.76,9.93-11.94v54.13c-1.92.38-3.84.77-5.76,1.15Z"/>
      <path class="cls-1" d="m481.45,303.74c-12.06-.61-12.21-.97-19.98-47.11,12-1.04,14.8,5.57,19.98,47.11Z"/>
      <path class="cls-1" d="m420.15,255.17c-2.26,17.74-.6,36.68-15.14,50.03,1.9-17.8-.39-36.86,15.14-50.03Z"/>
      <path class="cls-1" d="m451.02,105.79v20.15c-19.58,4.98-21.24,3.11-17.77-20.15h17.77Z"/>
      <path class="cls-1" d="m450.28,67.65h-17.62v-20.82c5.49-.44,10.71-.87,17.62-1.42v22.25Z"/>
      <path class="cls-1" d="m453.61,91.16c-4.31,2.2-9.4,6.96-12.72,5.94-3.93-1.21-8.84-7.53-8.64-11.39.19-3.49,6.51-8.94,10.46-9.25,3.56-.28,7.58,5.24,11.39,8.2-.16,2.17-.33,4.33-.49,6.5Z"/>
      <path class="cls-1" d="m429.71,136.67h22.6c-1.37,7.38-1.8,14.09-4.29,19.9-.6,1.4-10.34,1.5-11.87-.65-3.28-4.62-3.95-11.09-6.44-19.26Z"/>
      <path class="cls-1" d="m485.55,150.37c-4.59-17.23,1.75-25.19,18.42-26.38,3.78,15.68-4.15,22.54-18.42,26.38Z"/>
      <path class="cls-1" d="m459.46,47.07c18.92.24,19.12.51,15.47,20.57h-15.47v-20.57Z"/>
      <path class="cls-1" d="m407.53,105.07c18.06-1.57,19.23-.02,15.39,19.71-20.09,4.65-15.98-8.56-15.39-19.71Z"/>
      <path class="cls-1" d="m475.84,104.29c2.15,13.19,3.65,24.49-14.74,20.87-5.24-18.91-3.97-20.84,14.74-20.87Z"/>
      <path class="cls-1" d="m425.09,67.65h-16.83c-2.94-12.48-2.6-21.8,15.75-20.61.33,6.19.65,12.43,1.09,20.61Z"/>
      <path class="cls-1" d="m459.8,154.67c-2.2-11.8-5.45-23.9,14.35-20.9,5.81,19.15,4.01,21.9-14.35,20.9Z"/>
      <path class="cls-1" d="m423.93,154.78c-17.39,1.68-19.08-7.26-15.66-20.61h15.66v20.61Z"/>
      <path class="cls-1" d="m504.08,101.15c5.15,17.03-8.34,16.63-18.2,20.07-2.68-20.42-2.21-20.94,18.2-20.07Z"/>
      <path class="cls-1" d="m459.21,96.91c-.44-5.25-.87-7.93-.82-10.6.05-2.67.58-5.33,1.04-9.21h16.59v17.65c-5.05.65-10.17,1.31-16.81,2.16Z"/>
      <path class="cls-1" d="m423.47,96.53c-5.74-.53-10.56-.98-15.9-1.48v-16.89c18.1-3.56,18.31-3.34,15.9,18.36Z"/>
      <path class="cls-1" d="m484.92,92.6v-20.05c8.42,4.26,14.43,7.31,20.44,10.35-5.7,4.82-11.4,9.65-17.1,14.47-1.11-1.59-2.23-3.18-3.34-4.77Z"/>
      <path class="cls-1" d="m378.81,128.52c20.17-2.57,23.03,6.14,18,24.15-7.33-9.83-12.66-16.99-18-24.15Z"/>
      <path class="cls-1" d="m393.84,122.81c-5-5.84-10-11.68-17.26-20.15,22.65-4.99,24.39,3.99,17.26,20.15Z"/>
      <path class="cls-1" d="m398.67,78.64v20.99c-7.96-7.23-12.7-11.52-17.43-15.81,4.69-3.33,9.37-6.65,14.06-9.98,1.12,1.6,2.25,3.2,3.37,4.8Z"/>
      <path class="cls-1" d="m485.25,48.6c7.86,5.3,14.39,9.71,20.91,14.12-.61,1.42-1.21,2.84-1.82,4.26h-19.1v-18.38Z"/>
    </g>
  </g>
</svg>