<svg id="Layer_1" data-name="Layer 1" xmlns="http://www.w3.org/2000/svg" viewBox="0 0 808 225"><defs><style>.cls-1,.cls-2{fill:#fff;stroke:#020202;}.cls-2{stroke-width:2px;}</style></defs><path class="cls-1" d="M411.9,165.46h49.52c-3.11,12.81-6.11,25.22-9.17,37.83h28.22c9.75-40.07,19.47-80,29.22-120.11-.94-.08-1.54-.17-2.15-.17q-37.82,0-75.65,0a42.86,42.86,0,0,0-17.65,3.52c-13,5.79-20.21,16.37-24,29.48C382,144.31,374,172.68,365.88,201a16.71,16.71,0,0,0-.33,2.46c8.22,0,16.11-.15,24,.07,3,.08,4.17-.83,5-3.73,8.06-28,16.3-56,24.5-84,1.09-3.72,2.23-4.53,6.19-4.53H475c-2,7.88-4.13,15.47-5.92,23.13-.52,2.22-1.5,2.65-3.55,2.64-13.23-.08-26.45,0-39.68,0-6.15,0-6.16,0-7.79,5.91C416.05,150.22,414.07,157.5,411.9,165.46ZM747.16,83.23a11.74,11.74,0,0,0-1.37-.22c-25,0-50-.26-75,.07-22.47.3-42.8,16.12-48.49,37.24q-6.1,22.67-11.67,45.48c-2.84,11.61-1.2,22.22,8.33,30.54,6.67,5.82,14.8,7.1,23.25,7.11q35.05.06,70.1,0h3.1c2.43-9.48,4.78-18.68,7.25-28.3h-4q-35.52,0-71,0c-7.74,0-10.3-3.25-8.44-10.63q5.29-21,10.69-41.93c2.12-8.23,6.18-11.3,14.77-11.3H740C742.39,101.83,744.74,92.64,747.16,83.23ZM308.44,33.62c5.7-1.65,10.51-3.4,15.47-4.4,15.23-3.07,26.42,4.16,29.41,19.39a55.33,55.33,0,0,1,.7,17.08C351,91.29,340.42,114,325.7,134.84c-4.13,5.85-9,11.15-13.27,16.92-6.82,9.27-11.95,19.31-12.93,31.06-1.08,12.92,5.75,22.28,18.4,25.08a45.56,45.56,0,0,0,21.59-.55c4.06-1.07,8-2.58,12.59-4.08-4.28-1.78-7.73-3-11-4.62-9.41-4.53-16.2-11.33-17-22.28a55,55,0,0,1,1-13.71,46.24,46.24,0,0,1,9.94-22c13.3-15.93,24.88-33.06,33.15-52.22,5.6-13,9.86-26.25,9.63-40.62-.27-17.52-10.95-27.86-28.33-28.35C334.13,19,321.5,25.41,308.44,33.62Zm240.62,77.16c-7.27,31.15-14.43,61.85-21.59,92.54h26.09c.3-1.09.6-2.06.84-3q6.21-25.19,12.41-50.38c3.18-13,6.94-25.94,9.25-39.12,2.64-15-3.38-26.49-20.67-27.37-11.45-.57-22.95-.27-34.42-.19-.74,0-1.87,1.33-2.12,2.23-2.1,7.6-4,15.23-6,22.86a18.93,18.93,0,0,0-.3,2.48Zm197.38,11.11C739.21,149,732,176.11,724.73,203.33H753c7.24-27.13,14.45-54.19,21.72-81.44Zm-164.59-10.6c11.18,0,21.92,0,32.66-.08a3.8,3.8,0,0,0,2.48-2,49.07,49.07,0,0,1,14.47-18c4-3,8.32-5.37,12.34-7.92H570.92C581.64,90.07,583.48,99.87,581.85,111.29Zm167.59.31c9.28,0,18.06,0,26.84-.07a2.54,2.54,0,0,0,1.78-1.56c2.37-8.88,4.62-17.78,6.94-26.84H756.8C754.38,92.46,752,101.74,749.44,111.6Z"/><path class="cls-2" d="M411.9,165.46c2.17-8,4.15-15.24,6.15-22.52,1.63-5.91,1.64-5.91,7.79-5.91,13.23,0,26.45,0,39.68,0,2.05,0,3-.42,3.55-2.64,1.79-7.66,3.88-15.25,5.92-23.13H425.23c-4,0-5.1.81-6.19,4.53-8.2,28-16.44,56-24.5,84-.83,2.9-2,3.81-5,3.73-7.88-.22-15.77-.07-24-.07a16.71,16.71,0,0,1,.33-2.46c8.08-28.33,16.08-56.7,24.32-85,3.83-13.11,11.08-23.69,24-29.48A42.86,42.86,0,0,1,431.89,83q37.83-.06,75.65,0c.61,0,1.21.09,2.15.17-9.75,40.09-19.47,80-29.22,120.11H452.25c3.06-12.61,6.06-25,9.17-37.83Z"/><path class="cls-2" d="M747.16,83.23c-2.42,9.41-4.77,18.6-7.2,28.07h-75.3c-8.59,0-12.65,3.07-14.77,11.3q-5.39,21-10.69,41.93c-1.86,7.38.7,10.62,8.44,10.63q35.5,0,71,0h4c-2.47,9.62-4.82,18.82-7.25,28.3h-3.1q-35,0-70.1,0c-8.45,0-16.58-1.29-23.25-7.11-9.53-8.32-11.17-18.93-8.33-30.54q5.58-22.8,11.67-45.48c5.69-21.12,26-36.94,48.49-37.24,25-.33,50-.07,75-.07A11.74,11.74,0,0,1,747.16,83.23Z"/><path class="cls-2" d="M236.51,152.74,220.25,116.8l-1.07-.25c-3.77,9.12-7.83,18.15-11.25,27.41a72.26,72.26,0,0,0-4.85,28,45.19,45.19,0,0,0,.93,8.22c3.12,13.58,13.4,20.73,28.17,19.24,5.74-.58,11.38-2.12,17.08-3.23-2.06,1.07-4.2,2.25-6.41,3.3-10.32,4.91-20.94,8.93-32.51,9.39-10.57.43-20.3-1.76-26.78-11.15-4.3-6.24-5.27-13.45-5.07-20.84.43-15.57,5.19-30.08,12.15-43.73,5.85-11.46,12.93-22.28,19.35-33.45.64-1.12,1.08-3,.6-4C201.29,74.7,191.83,53.83,182.4,33c-.13-.27-.3-.52-.44-.76-8.73-.13-12.11-2.5-12.13-8.45a8.45,8.45,0,0,1,8.42-8.7c5.46-.09,8.52,3.64,8.92,11.12,9.81,2.89,19.7,5.83,29.59,8.73,12.86,3.77,25.74,7.45,38.57,11.34A7,7,0,0,0,262.5,45a182.81,182.81,0,0,1,48-26.95,53.44,53.44,0,0,1,21.67-3.73,109.21,109.21,0,0,0-32,14.78c-9.71,6.6-19,13.86-28.43,20.83l.41,1.15L312,62.82l-.1.47q-9.39-1.65-18.77-3.3c-8.16-1.45-16.31-3-24.49-4.33a3.51,3.51,0,0,0-2.65.8,254.67,254.67,0,0,0-41.84,52.84,5.39,5.39,0,0,0-.16,4c4.05,12.34,8.25,24.63,12.4,36.94.25.75.45,1.52.67,2.28ZM211.1,45.35l-.24.64,22.39,24.74,19-18Zm5.18,45.51,15.29-18.28L204.19,53.32l-.48.43C207.86,66,212,78.3,216.28,90.86Z"/><path class="cls-2" d="M308.44,33.62c13.06-8.21,25.69-14.62,41-14.18,17.38.49,28.06,10.83,28.33,28.35.23,14.37-4,27.65-9.63,40.62-8.27,19.16-19.85,36.29-33.15,52.22a46.24,46.24,0,0,0-9.94,22,55,55,0,0,0-1,13.71c.81,10.95,7.6,17.75,17,22.28,3.28,1.59,6.73,2.84,11,4.62-4.58,1.5-8.53,3-12.59,4.08a45.56,45.56,0,0,1-21.59.55c-12.65-2.8-19.48-12.16-18.4-25.08,1-11.75,6.11-21.79,12.93-31.06,4.24-5.77,9.14-11.07,13.27-16.92C340.42,114,351,91.29,354,65.69a55.33,55.33,0,0,0-.7-17.08c-3-15.23-14.18-22.46-29.41-19.39C319,30.22,314.14,32,308.44,33.62Z"/><path class="cls-2" d="M549.06,110.78h-36.5a18.93,18.93,0,0,1,.3-2.48c1.95-7.63,3.89-15.26,6-22.86.25-.9,1.38-2.23,2.12-2.23,11.47-.08,23-.38,34.42.19,17.29.88,23.31,12.34,20.67,27.37-2.31,13.18-6.07,26.1-9.25,39.12q-6.15,25.2-12.41,50.38c-.24,1-.54,2-.84,3H527.47C534.63,172.63,541.79,141.93,549.06,110.78Z"/><path class="cls-2" d="M746.44,121.89h28.24c-7.27,27.25-14.48,54.31-21.72,81.44H724.73C732,176.11,739.21,149,746.44,121.89Z"/><path class="cls-2" d="M581.85,111.29c1.63-11.42-.21-21.22-10.93-28H643.8c-4,2.55-8.38,5-12.34,7.92a49.07,49.07,0,0,0-14.47,18,3.8,3.8,0,0,1-2.48,2C603.77,111.34,593,111.29,581.85,111.29Z"/><path class="cls-2" d="M749.44,111.6c2.55-9.86,4.94-19.14,7.36-28.47H785c-2.32,9.06-4.57,18-6.94,26.84a2.54,2.54,0,0,1-1.78,1.56C767.5,111.63,758.72,111.6,749.44,111.6Z"/></svg>